<svg xmlns="http://www.w3.org/2000/svg" width="41.855" height="41.855" viewBox="0 0 41.855 41.855">
  <g id="crown" transform="translate(-172 -380)">
    <g id="crown-2" data-name="crown" transform="translate(172 380)">
      <path id="Vector" d="M18.747,2.616H1.308A1.317,1.317,0,0,1,0,1.308,1.317,1.317,0,0,1,1.308,0H18.747a1.317,1.317,0,0,1,1.308,1.308A1.317,1.317,0,0,1,18.747,2.616Z" transform="translate(10.9 35.751)" fill="#c6ac27"/>
      <path id="Vector-2" data-name="Vector" d="M31.882,5.742,24.907,10.73a1.755,1.755,0,0,1-2.651-.8l-3.3-8.789a1.737,1.737,0,0,0-3.261,0L12.385,9.91a1.719,1.719,0,0,1-2.633.8L2.776,5.724A1.757,1.757,0,0,0,.108,7.747L7.363,28.064A1.73,1.73,0,0,0,9,29.215h16.62a1.754,1.754,0,0,0,1.639-1.151L34.516,7.747A1.729,1.729,0,0,0,31.882,5.742Zm-10.2,16.1h-8.72a1.308,1.308,0,0,1,0-2.616h8.72a1.308,1.308,0,0,1,0,2.616Z" transform="translate(3.607 3.885)" fill="#c6ac27"/>
      <path id="Vector-3" data-name="Vector" d="M0,0H41.855V41.855H0Z" transform="translate(41.855 41.855) rotate(180)" fill="none" opacity="0"/>
    </g>
  </g>
</svg>
