<svg id="dropdownprofile" xmlns="http://www.w3.org/2000/svg" width="58.491" height="58.491" viewBox="0 0 58.491 58.491">
  <g id="vuesax_bold_task" data-name="vuesax/bold/task" transform="translate(-44 -190)">
    <g id="task" transform="translate(44 190)">
      <path id="Vector" d="M23.684,3.927H1.964A1.964,1.964,0,1,1,1.964,0h21.72a1.964,1.964,0,0,1,0,3.927Z" transform="translate(25.228 42.997)" fill="#a70202"/>
      <path id="Vector-2" data-name="Vector" d="M23.684,3.927H1.964A1.964,1.964,0,1,1,1.964,0h21.72a1.964,1.964,0,0,1,0,3.927Z" transform="translate(25.228 27.648)" fill="#a70202"/>
      <path id="Vector-3" data-name="Vector" d="M23.684,3.927H1.964A1.964,1.964,0,1,1,1.964,0h21.72a1.964,1.964,0,0,1,0,3.927Z" transform="translate(25.228 12.274)" fill="#a70202"/>
      <path id="Vector-4" data-name="Vector" d="M4.143,10.441a1.976,1.976,0,0,1-1.389-.575L.575,7.687A1.964,1.964,0,0,1,3.353,4.909l.79.79L9.268.575a1.964,1.964,0,0,1,2.778,2.778L5.532,9.866A2.019,2.019,0,0,1,4.143,10.441Z" transform="translate(7.615 8.979)" fill="#a70202"/>
      <path id="Vector-5" data-name="Vector" d="M4.143,10.441a1.958,1.958,0,0,1-1.389-.575L.575,7.687A1.964,1.964,0,0,1,3.353,4.909l.79.79L9.268.575a1.964,1.964,0,0,1,2.778,2.778L5.532,9.866A1.958,1.958,0,0,1,4.143,10.441Z" transform="translate(7.615 24.392)" fill="#a70202"/>
      <path id="Vector-6" data-name="Vector" d="M4.143,10.441a1.958,1.958,0,0,1-1.389-.575L.575,7.687A1.964,1.964,0,0,1,3.353,4.909l.79.79L9.268.575a1.964,1.964,0,0,1,2.778,2.778L5.532,9.866A1.958,1.958,0,0,1,4.143,10.441Z" transform="translate(7.615 39.071)" fill="#a70202"/>
      <path id="Vector-7" data-name="Vector" d="M0,0H58.491V58.491H0Z" transform="translate(58.491 58.491) rotate(180)" fill="none" opacity="0"/>
    </g>
  </g>
</svg>
