<svg id="library-btn" xmlns="http://www.w3.org/2000/svg" width="58.558" height="57.042" viewBox="0 0 58.558 57.042">
  <g id="music-playlist">
    <path id="Vector" d="M0,0H58.558V57.042H0Z" fill="none" opacity="0"/>
    <path id="Vector-2" data-name="Vector" d="M31.109,3.565H1.83A1.82,1.82,0,0,1,0,1.783,1.82,1.82,0,0,1,1.83,0H31.109a1.82,1.82,0,0,1,1.83,1.783A1.82,1.82,0,0,1,31.109,3.565Z" transform="translate(12.809 8.913)" fill="#a70202"/>
    <path id="Vector-3" data-name="Vector" d="M16.469,3.565H1.83A1.82,1.82,0,0,1,0,1.783,1.82,1.82,0,0,1,1.83,0H16.469A1.82,1.82,0,0,1,18.3,1.783,1.82,1.82,0,0,1,16.469,3.565Z" transform="translate(20.129 2.971)" fill="#a70202"/>
    <path id="Vector-4" data-name="Vector" d="M1.513,0A1.5,1.5,0,0,0,0,1.474,1.5,1.5,0,0,0,1.513,2.947,1.5,1.5,0,0,0,3.025,1.474,1.5,1.5,0,0,0,1.513,0Z" transform="translate(32.426 38.527)" fill="#a70202"/>
    <path id="Vector-5" data-name="Vector" d="M3.025,1.45A1.481,1.481,0,0,0,1.513,0,1.5,1.5,0,0,0,0,1.474,1.5,1.5,0,0,0,1.513,2.947,1.537,1.537,0,0,0,3.025,1.45Z" transform="translate(20.178 40.714)" fill="#a70202"/>
    <path id="Vector-6" data-name="Vector" d="M39.038,0H9.76A9.664,9.664,0,0,0,0,9.507V26.144a9.664,9.664,0,0,0,9.76,9.507H39.038a9.664,9.664,0,0,0,9.76-9.507V9.507A9.664,9.664,0,0,0,39.038,0ZM34.232,12.977V23.364c0,.048-.024.071-.024.119a5.161,5.161,0,1,1-5.148-5.158,5.292,5.292,0,0,1,1.513.238V15.306l-8.588,2.282v7.938a5.174,5.174,0,1,1-5.173-5.039,5.292,5.292,0,0,1,1.513.238V12.407A4.39,4.39,0,0,1,21.74,8.057L28.4,6.275a4.722,4.722,0,0,1,4.221.57,4.434,4.434,0,0,1,1.61,3.779Z" transform="translate(4.88 16.637)" fill="#a70202"/>
  </g>
</svg>
