<svg xmlns="http://www.w3.org/2000/svg" width="102" height="89" viewBox="0 0 102 89">
  <g id="likedsongs" transform="translate(-234.151 -361)">
    <rect id="Rectangle_31" data-name="Rectangle 31" width="102" height="89" rx="20" transform="translate(234.151 361)" fill="#a70202"/>
    <path id="Vector" d="M20.081,36.216a5.371,5.371,0,0,1-1.784-.27,29.763,29.763,0,0,1-9.513-5.757C4.784,26.649,0,20.649,0,12.135A12.1,12.1,0,0,1,12.054,0a11.972,11.972,0,0,1,8.054,3.081A12.265,12.265,0,0,1,32.973,1.027a12.2,12.2,0,0,1,7.216,11.135c0,12.811-11.243,21.405-18.324,23.811A6.323,6.323,0,0,1,20.081,36.216ZM12.027,4.054a8.051,8.051,0,0,0-8,8.081c0,7.027,4.027,12.027,7.432,15.027a25.35,25.35,0,0,0,8.135,4.946,1.765,1.765,0,0,0,.919,0c4.054-1.378,15.595-8,15.595-19.973A8.087,8.087,0,0,0,31.324,4.73,8.232,8.232,0,0,0,21.7,7.27a2.3,2.3,0,0,1-1.622.811,2,2,0,0,1-1.622-.811A7.975,7.975,0,0,0,12.027,4.054Z" transform="translate(265.056 387.392)" fill="#180445"/>
  </g>
</svg>
