<svg xmlns="http://www.w3.org/2000/svg" width="51" height="51" viewBox="0 0 51 51">
  <g id="mic" transform="translate(-236 -188)">
    <g id="microphone-2" transform="translate(236 188)">
      <path id="Vector" d="M31.748.021A1.478,1.478,0,0,0,30.26,1.509V4.866a13.643,13.643,0,1,1-27.285,0V1.488A1.478,1.478,0,0,0,1.488,0,1.478,1.478,0,0,0,0,1.488V4.845A16.631,16.631,0,0,0,15.13,21.378V25.9a1.488,1.488,0,1,0,2.975,0V21.378A16.632,16.632,0,0,0,33.235,4.845V1.488A1.5,1.5,0,0,0,31.748.021Z" transform="translate(8.882 19.359)" fill="#a70202"/>
      <path id="Vector-2" data-name="Vector" d="M9.392,0A9.4,9.4,0,0,0,0,9.392v10.88a9.392,9.392,0,1,0,18.785,0V9.392A9.4,9.4,0,0,0,9.392,0Zm2.784,14.769a1.225,1.225,0,0,1-1.19.914,1.64,1.64,0,0,1-.319-.043,4.647,4.647,0,0,0-2.529,0A1.232,1.232,0,0,1,7.5,13.26a7.3,7.3,0,0,1,3.825,0A1.236,1.236,0,0,1,12.176,14.769ZM13.3,10.646a1.232,1.232,0,0,1-1.169.807,1.472,1.472,0,0,1-.425-.064,6.681,6.681,0,0,0-4.633,0,1.254,1.254,0,0,1-1.594-.744,1.222,1.222,0,0,1,.744-1.573,9.265,9.265,0,0,1,6.332,0A1.23,1.23,0,0,1,13.3,10.646Z" transform="translate(16.108 4.25)" fill="#a70202"/>
      <path id="Vector-3" data-name="Vector" d="M0,0H51V51H0Z" fill="none" opacity="0"/>
    </g>
  </g>
</svg>
